<svg width="11" height="12" viewBox="0 0 11 12" fill="none" xmlns="http://www.w3.org/2000/svg">
<mask id="path-1-outside-1_42_174" maskUnits="userSpaceOnUse" x="-1" y="-1" width="14" height="14" fill="black">
<rect fill="white" x="-1" y="-1" width="14" height="14"/>
<path d="M3.0625 -3.57628e-07L5.9375 4.90625L8.8125 -3.57628e-07H10.9375L7.0625 6L10.9375 12H8.8125L5.9375 7.34375L3.0625 12H0.9375L4.75 6L0.9375 -3.57628e-07H3.0625Z"/>
</mask>
<path d="M3.0625 -3.57628e-07L5.9375 4.90625L8.8125 -3.57628e-07H10.9375L7.0625 6L10.9375 12H8.8125L5.9375 7.34375L3.0625 12H0.9375L4.75 6L0.9375 -3.57628e-07H3.0625Z" fill="white"/>
<path d="M3.0625 0L3.92528 -0.505579L3.63556 -1H3.0625V0ZM5.9375 4.90625L5.07472 5.41183L5.9375 6.88418L6.80028 5.41183L5.9375 4.90625ZM8.8125 0V-1H8.23944L7.94972 -0.505579L8.8125 0ZM10.9375 0L11.7775 0.542525L12.7738 -1H10.9375V0ZM7.0625 6L6.22246 5.45747L5.87208 6L6.22246 6.54252L7.0625 6ZM10.9375 12V13H12.7738L11.7775 11.4575L10.9375 12ZM8.8125 12L7.96163 12.5254L8.25469 13H8.8125V12ZM5.9375 7.34375L6.78837 6.81838L5.9375 5.44033L5.08663 6.81838L5.9375 7.34375ZM3.0625 12V13H3.62031L3.91337 12.5254L3.0625 12ZM0.9375 12L0.0934767 11.4637L-0.882718 13H0.9375V12ZM4.75 6L5.59402 6.53631L5.9348 6L5.59402 5.46369L4.75 6ZM0.9375 0V-1H-0.882718L0.0934767 0.536306L0.9375 0ZM2.19972 0.505578L5.07472 5.41183L6.80028 4.40067L3.92528 -0.505579L2.19972 0.505578ZM6.80028 5.41183L9.67528 0.505578L7.94972 -0.505579L5.07472 4.40067L6.80028 5.41183ZM8.8125 1H10.9375V-1H8.8125V1ZM10.0975 -0.542525L6.22246 5.45747L7.90254 6.54252L11.7775 0.542525L10.0975 -0.542525ZM6.22246 6.54252L10.0975 12.5425L11.7775 11.4575L7.90254 5.45747L6.22246 6.54252ZM10.9375 11H8.8125V13H10.9375V11ZM9.66337 11.4746L6.78837 6.81838L5.08663 7.86912L7.96163 12.5254L9.66337 11.4746ZM5.08663 6.81838L2.21163 11.4746L3.91337 12.5254L6.78837 7.86912L5.08663 6.81838ZM3.0625 11H0.9375V13H3.0625V11ZM1.78152 12.5363L5.59402 6.53631L3.90598 5.46369L0.0934767 11.4637L1.78152 12.5363ZM5.59402 5.46369L1.78152 -0.536306L0.0934767 0.536306L3.90598 6.53631L5.59402 5.46369ZM0.9375 1H3.0625V-1H0.9375V1Z" fill="black" mask="url(#path-1-outside-1_42_174)"/>
</svg>
