<svg width="18" height="16" viewBox="0 0 18 16" fill="none" xmlns="http://www.w3.org/2000/svg">
<path d="M9.21577 0.771492L9.21663 0.773082L11.3376 4.71335L11.4587 4.93825L11.7119 4.97198L16.4509 5.60323C16.4511 5.60325 16.4513 5.60328 16.4514 5.6033C16.6831 5.63485 16.8413 5.77574 16.8962 5.92588C16.9466 6.06359 16.913 6.22924 16.7723 6.35488L16.7721 6.35506L13.3349 9.42567L13.1245 9.61359L13.1766 9.89081L13.9911 14.2287C13.9911 14.2288 13.9911 14.229 13.9912 14.2292C14.0168 14.3694 13.9579 14.5372 13.7828 14.6522C13.608 14.7669 13.3625 14.7846 13.1583 14.6876C13.158 14.6875 13.1577 14.6874 13.1574 14.6872L8.92731 12.6481L8.7102 12.5434L8.49308 12.6481L4.26299 14.6872C4.2627 14.6874 4.26241 14.6875 4.26213 14.6876C4.06043 14.7834 3.81325 14.7659 3.63491 14.6504C3.46414 14.5398 3.40319 14.3713 3.42924 14.2291C3.42926 14.229 3.42929 14.2288 3.42932 14.2287L4.24057 9.89045L4.29237 9.61343L4.0822 9.42567L0.645043 6.35506L0.644842 6.35488C0.506909 6.23179 0.471222 6.0653 0.522331 5.92187C0.573696 5.77773 0.730983 5.63523 0.965763 5.60329C0.965905 5.60327 0.966047 5.60325 0.966188 5.60323L5.70195 4.97197L5.95511 4.93823L6.07616 4.71335L8.19617 0.774925C8.19631 0.774665 8.19645 0.774405 8.19659 0.774145C8.27958 0.622283 8.46776 0.5 8.7069 0.5C8.9491 0.5 9.13736 0.62455 9.21577 0.771492Z" fill="#FFC918" stroke="#FFC918"/>
</svg>
