<svg width="11" height="16" viewBox="0 0 11 16" fill="none" xmlns="http://www.w3.org/2000/svg">
<g clip-path="url(#clip0_175_118)">
<path d="M0.550049 4.5C0.550049 3.30653 1.07157 2.16193 1.99987 1.31802C2.92818 0.474106 4.18723 0 5.50005 0C6.81287 0 8.07192 0.474106 9.00023 1.31802C9.92853 2.16193 10.45 3.30653 10.45 4.5C10.45 5.69347 9.92853 6.83807 9.00023 7.68198C8.07192 8.52589 6.81287 9 5.50005 9C4.18723 9 2.92818 8.52589 1.99987 7.68198C1.07157 6.83807 0.550049 5.69347 0.550049 4.5ZM5.50005 2.5C5.80255 2.5 6.05005 2.275 6.05005 2C6.05005 1.725 5.80255 1.5 5.50005 1.5C3.67817 1.5 2.20005 2.84375 2.20005 4.5C2.20005 4.775 2.44755 5 2.75005 5C3.05255 5 3.30005 4.775 3.30005 4.5C3.30005 3.39687 4.28661 2.5 5.50005 2.5ZM4.40005 15V9.90938C4.75755 9.96875 5.12536 10 5.50005 10C5.87474 10 6.24255 9.96875 6.60005 9.90938V15C6.60005 15.5531 6.10849 16 5.50005 16C4.89161 16 4.40005 15.5531 4.40005 15Z" fill="#FFBF00"/>
</g>
<defs>
<clipPath id="clip0_175_118">
<rect width="11" height="16" fill="white"/>
</clipPath>
</defs>
</svg>
