<svg width="26" height="26" viewBox="0 0 26 26" fill="none" xmlns="http://www.w3.org/2000/svg">
<path d="M14.4145 0.91396C14.1535 0.355429 13.6021 0 12.9965 0C12.3908 0 11.8443 0.355429 11.5784 0.91396L8.41249 7.63157L1.34203 8.70801C0.751184 8.79941 0.258812 9.22592 0.0766349 9.80984C-0.105543 10.3938 0.0421688 11.0386 0.465608 11.4702L5.59612 16.7052L4.38489 24.1032C4.28641 24.7125 4.5326 25.3319 5.02005 25.6924C5.50749 26.0529 6.1525 26.0986 6.68426 25.8092L13.0014 22.3311L19.3185 25.8092C19.8503 26.0986 20.4953 26.058 20.9827 25.6924C21.4702 25.3269 21.7164 24.7125 21.6179 24.1032L20.4017 16.7052L25.5322 11.4702C25.9557 11.0386 26.1083 10.3938 25.9212 9.80984C25.7341 9.22592 25.2467 8.79941 24.6558 8.70801L17.5804 7.63157L14.4145 0.91396Z" fill="black"/>
</svg>
