<svg width="29" height="28" viewBox="0 0 29 28" fill="none" xmlns="http://www.w3.org/2000/svg">
<path d="M25.375 21H14.5C12.5006 21 10.875 19.4305 10.875 17.5V3.5C10.875 1.56953 12.5006 0 14.5 0H22.4354C23.1547 0 23.8457 0.278906 24.3555 0.771094L28.2014 4.48438C28.7111 4.97656 29 5.64375 29 6.33828V17.5C29 19.4305 27.3744 21 25.375 21ZM3.625 7H9.0625V9.625H3.625C3.12656 9.625 2.71875 10.0188 2.71875 10.5V24.5C2.71875 24.9813 3.12656 25.375 3.625 25.375H14.5C14.9984 25.375 15.4062 24.9813 15.4062 24.5V22.75H18.125V24.5C18.125 26.4305 16.4994 28 14.5 28H3.625C1.62559 28 0 26.4305 0 24.5V10.5C0 8.56953 1.62559 7 3.625 7Z" fill="#4B4646"/>
</svg>
